<?xml version="1.0" ?><svg width="32px" height="32px" viewBox="0 0 32 32" xmlns="http://www.w3.org/2000/svg"><defs><style>.cls-1{fill:#77acf1;}.cls-2{fill:#04009a;}</style></defs><g data-name="18. Fast Delivery" id="_18._Fast_Delivery"><path class="cls-1" d="M18,6h6a0,0,0,0,1,0,0v5.13a.87.87,0,0,1-.87.87H18.87a.87.87,0,0,1-.87-.87V6A0,0,0,0,1,18,6Z"/><path class="cls-2" d="M29,27H13a3,3,0,0,1-3-3V8a3,3,0,0,1,3-3H29a3,3,0,0,1,3,3V24A3,3,0,0,1,29,27ZM13,7a1,1,0,0,0-1,1V24a1,1,0,0,0,1,1H29a1,1,0,0,0,1-1V8a1,1,0,0,0-1-1Z"/><path class="cls-2" d="M17,23H15a1,1,0,0,1,0-2h2a1,1,0,0,1,0,2Z"/><path class="cls-1" d="M7,17H5a1,1,0,0,1,0-2H7a1,1,0,0,1,0,2Z"/><path class="cls-1" d="M7,13H3a1,1,0,0,1,0-2H7a1,1,0,0,1,0,2Z"/><path class="cls-1" d="M7,9H1A1,1,0,0,1,1,7H7A1,1,0,0,1,7,9Z"/></g></svg>